<svg width="30" height="31" viewBox="0 0 30 31" fill="none" xmlns="http://www.w3.org/2000/svg">
<path id="Vector" d="M12.2966 14.2275C13.7756 16.6875 13.5581 19.5825 11.7891 20.7525C10.0201 21.8925 7.38113 20.8275 5.88763 18.3675C4.40863 15.9075 4.64063 12.9825 6.40963 11.8425C8.17863 10.7025 10.8176 11.7675 12.2966 14.2275ZM14.7471 24.4575C17.6471 24.4575 18.3721 23.3325 18.3721 23.3325C18.3721 23.3325 17.6471 26.3325 14.7471 26.3325C11.8471 26.3325 11.1221 23.3775 11.1221 23.3325C11.1221 23.3325 11.8471 24.4575 14.7471 24.4575ZM23.0846 11.8425C24.8536 12.9825 25.0856 15.9075 23.6066 18.3675C22.1131 20.8275 19.4741 21.8925 17.7051 20.7525C15.9361 19.5825 15.7186 16.6875 17.1976 14.2275C18.6766 11.7675 21.3156 10.7025 23.0846 11.8425ZM14.7471 27.8325C18.3721 27.8325 26.3471 20.1225 26.3471 14.3325C26.3471 8.54252 21.1416 3.83252 14.7471 3.83252C8.35263 3.83252 3.14713 8.54252 3.14713 14.3325C3.14713 20.1225 11.1221 27.8325 14.7471 27.8325ZM14.7471 0.83252C22.7221 0.83252 29.2471 6.89252 29.2471 14.3325C29.2471 20.4525 21.0111 30.8325 14.7471 30.8325C8.48313 30.8325 0.247131 20.4525 0.247131 14.3325C0.247131 6.89252 6.77213 0.83252 14.7471 0.83252Z" fill="#02E4C0"/>
</svg>
