<svg width="27" height="24" viewBox="0 0 27 24" fill="none" xmlns="http://www.w3.org/2000/svg">
<path id="Vector" d="M7.89923 13.6089L11.6726 9.83554L3.41923 1.59554C2.77923 0.955542 1.67256 1.12888 1.27256 1.95554C0.325893 3.94221 0.672559 6.38221 2.31256 8.03554L7.89923 13.6089ZM16.9392 11.1955C18.9792 12.1422 21.8459 11.4755 23.9659 9.35554C26.5126 6.80887 27.0059 3.15554 25.0459 1.19554C23.0992 -0.751124 19.4459 -0.271124 16.8859 2.27554C14.7659 4.39554 14.0992 7.26221 15.0459 9.30221L2.96589 21.3822C2.71659 21.6315 2.57653 21.9696 2.57653 22.3222C2.57653 22.6748 2.71659 23.0129 2.96589 23.2622C3.2152 23.5115 3.55332 23.6516 3.90589 23.6516C4.25846 23.6516 4.59659 23.5115 4.84589 23.2622L13.0992 15.0355L21.3392 23.2755C21.4627 23.399 21.6092 23.4969 21.7705 23.5637C21.9318 23.6305 22.1047 23.6649 22.2792 23.6649C22.4538 23.6649 22.6267 23.6305 22.788 23.5637C22.9492 23.4969 23.0958 23.399 23.2192 23.2755C23.3427 23.1521 23.4406 23.0055 23.5074 22.8443C23.5742 22.683 23.6086 22.5101 23.6086 22.3355C23.6086 22.161 23.5742 21.9881 23.5074 21.8268C23.4406 21.6655 23.3427 21.519 23.2192 21.3955L14.9792 13.1555L16.9392 11.1955Z" fill="#02E4C0"/>
</svg>
