<svg width="42" height="20" viewBox="0 0 42 20" fill="none" xmlns="http://www.w3.org/2000/svg">
<path id="Vector" d="M32.0221 0.33256C29.5621 0.33256 27.2387 1.3214 25.5817 3.03423L13.5721 14.0528C12.4787 15.1829 11.0267 15.8009 9.47207 15.8009C6.27749 15.8009 3.66374 13.1346 3.66374 9.83254C3.66374 6.5305 6.27749 3.86415 9.47207 3.86415C11.0267 3.86415 12.4787 4.48218 13.6404 5.68292L15.5708 7.44872L18.1846 5.08255L15.9979 3.12252C15.1424 2.2349 14.1252 1.53133 13.0051 1.05246C11.885 0.573585 10.6842 0.328905 9.47207 0.33256C4.38124 0.33256 0.24707 4.60579 0.24707 9.83254C0.24707 15.0593 4.38124 19.3325 9.47207 19.3325C11.9321 19.3325 14.2554 18.3437 15.9125 16.6309L27.9221 5.61229C29.0154 4.48218 30.4675 3.86415 32.0221 3.86415C35.2167 3.86415 37.8304 6.5305 37.8304 9.83254C37.8304 13.1346 35.2167 15.8009 32.0221 15.8009C30.4846 15.8009 29.0154 15.1829 27.8537 13.9822L25.8721 12.1987L23.3096 14.5649L25.4962 16.5426C26.354 17.4257 27.372 18.1252 28.4919 18.6009C29.6117 19.0767 30.8114 19.3193 32.0221 19.3149C37.1129 19.3149 41.2471 15.0593 41.2471 9.83254C41.2471 4.53515 37.1129 0.33256 32.0221 0.33256Z" fill="#02E4C0"/>
</svg>
